<svg width="1113" height="953" viewBox="0 0 1113 953" fill="none" xmlns="http://www.w3.org/2000/svg">
<path d="M87.0032 862.974C97.0893 875.167 156.637 881.214 186.005 882.432C309.788 887.563 434.288 888.339 558.296 884.8C624.395 882.913 779.545 901.132 967.685 875.451C982.817 873.384 1069.53 849.916 1002.05 841.617C878.366 826.409 700.004 824.778 431.483 822.689C417.613 822.58 357.656 825.91 289.534 830.473C237.37 833.968 69.0929 841.322 87.0032 862.974Z" fill="#E8DEDC"/>
<path d="M640.313 274.371V231.846H492.952C479.238 231.846 468.121 241.364 468.121 253.107C468.121 264.85 479.238 274.369 492.952 274.369H640.313V274.371Z" fill="#707070"/>
<path d="M509.58 231.735H603.219C589.505 231.735 578.388 241.254 578.388 252.997C578.388 264.74 589.507 274.258 603.219 274.258H509.578C495.864 274.258 484.747 264.74 484.747 252.997C484.749 241.254 495.866 231.735 509.58 231.735Z" fill="#999999"/>
<path d="M815.58 269.217V274.369H492.952C486.766 274.369 481.123 272.421 476.776 269.217H815.58Z" fill="#E6E9EC"/>
<path d="M815.58 274.371V231.846H624.767C611.053 231.846 599.936 241.364 599.936 253.107C599.936 264.85 611.053 274.369 624.767 274.369H815.58V274.371Z" fill="#707070"/>
<mask id="mask0_1_249" style="mask-type:luminance" maskUnits="userSpaceOnUse" x="599" y="231" width="217" height="44">
<path d="M815.58 274.371V231.846H624.767C611.053 231.846 599.936 241.364 599.936 253.107C599.936 264.85 611.053 274.369 624.767 274.369H815.58V274.371Z" fill="white"/>
</mask>
<g mask="url(#mask0_1_249)">
<path d="M815.58 274.371V231.846H624.767C611.053 231.846 599.936 241.364 599.936 253.107C599.936 264.85 611.053 274.369 624.767 274.369H815.58V274.371Z" fill="#8A8A8A"/>
</g>
<mask id="mask1_1_249" style="mask-type:luminance" maskUnits="userSpaceOnUse" x="607" y="236" width="209" height="34">
<path d="M815.635 236.592H626.394C615.812 236.592 607.235 243.938 607.235 252.997C607.235 262.058 615.814 269.402 626.394 269.402H815.635V236.592Z" fill="white"/>
</mask>
<g mask="url(#mask1_1_249)">
<path d="M815.635 236.592H607.233V269.404H815.635V236.592Z" fill="#F1E7DB"/>
</g>
<mask id="mask2_1_249" style="mask-type:luminance" maskUnits="userSpaceOnUse" x="607" y="236" width="209" height="34">
<path d="M815.635 236.592H626.394C615.812 236.592 607.235 243.938 607.235 252.997C607.235 262.058 615.814 269.402 626.394 269.402H815.635V236.592Z" fill="white"/>
</mask>
<g mask="url(#mask2_1_249)">
<path d="M815.635 236.592H607.233V245.283H815.635V236.592Z" fill="#E6D9CA"/>
</g>
<mask id="mask3_1_249" style="mask-type:luminance" maskUnits="userSpaceOnUse" x="607" y="236" width="209" height="34">
<path d="M815.635 236.592H626.394C615.812 236.592 607.235 243.938 607.235 252.997C607.235 262.058 615.814 269.402 626.394 269.402H815.635V236.592Z" fill="white"/>
</mask>
<g mask="url(#mask3_1_249)">
<path d="M608.128 272.808H604.141V233.188H608.542C616.346 245.51 616.515 261.181 608.128 272.808Z" fill="#39354F"/>
</g>
<path d="M758.866 526.231H438.108C431.385 526.231 425.934 530.899 425.934 536.655V591.514C425.934 597.27 431.385 601.938 438.108 601.938H758.866V526.231Z" fill="#D9A524"/>
<path d="M758.866 533.47V526.231H438.108C432.683 526.231 428.091 529.271 426.517 533.47H758.866Z" fill="#FFE7D9"/>
<path d="M921.706 526.237V536.045H892.123V591.92H921.706V601.94H752.8C746.077 601.94 740.626 597.272 740.626 591.516V536.663C740.626 530.907 746.077 526.239 752.8 526.239H921.706V526.237Z" fill="#D58300"/>
<path d="M912.491 536.045H751.965V591.92H912.491V536.045Z" fill="#F1E7DB"/>
<path d="M912.491 536.045H751.965V553.899H912.491V536.045Z" fill="#E6D9CA"/>
<path d="M751.965 536.657C755.248 537.441 763.284 543.751 763.284 563.984C763.284 586.766 751.965 591.92 751.965 591.92V536.657Z" fill="#39354F"/>
<path d="M715.056 544.973H453.748V584.852H715.056V544.973Z" fill="#D58300"/>
<path d="M437.774 327.474H720.441C723.185 327.474 725.409 329.378 725.409 331.728V371.569C725.409 373.919 723.185 375.823 720.441 375.823H437.774V327.474Z" fill="#76B2D2"/>
<path d="M468.821 363.358H706.384V337.364H468.821V363.358Z" fill="#95CCEB"/>
<path d="M324.994 327.475V331.23H393.953V371.961H324.994V375.825H439.811C443.864 375.825 447.15 373.012 447.15 369.541V333.763C447.15 330.292 443.864 327.479 439.811 327.479H324.994V327.475Z" fill="#679AB6"/>
<path d="M329.731 371.961H441.322V331.229H329.731V371.961Z" fill="#F1E7DB"/>
<path d="M329.731 364.569H441.322V354.692H329.731V364.569Z" fill="#E6D9CA"/>
<path d="M441.32 331.545C439.404 333.863 436.216 336.117 436.216 349.785C436.216 364.208 439.711 370.507 440.559 371.962H441.32V331.545Z" fill="#3A3752"/>
<path d="M324.994 331.543H437.774H447.15H725.389C725.273 329.281 723.112 327.472 720.44 327.472H437.774V327.476H324.994V331.543Z" fill="#ECECEC"/>
<path d="M680.014 170.042H450.358C447.613 170.042 445.389 171.946 445.389 174.296V227.479C445.389 229.829 447.613 231.735 450.358 231.735H680.014V170.042Z" fill="#76B2D2"/>
<path d="M648.966 179.934H464.413V219.27H648.966V179.934Z" fill="#95CCEB"/>
<path d="M792.794 170.044V173.799H723.835V227.872H792.794V231.735H677.977C673.924 231.735 670.638 228.922 670.638 225.451V176.33C670.638 172.859 673.924 170.046 677.977 170.046H792.794V170.044Z" fill="#679AB6"/>
<path d="M788.057 173.799H676.466V227.872H788.057V173.799Z" fill="#F1E7DB"/>
<path d="M788.057 173.799H676.466V183.676H788.057V173.799Z" fill="#E6D9CA"/>
<path d="M676.466 174.113C678.382 176.431 683.796 188.216 683.796 201.884C683.796 216.306 678.075 226.418 677.227 227.872H676.466V174.113Z" fill="#3A3752"/>
<path d="M792.794 174.113H680.014H670.638H445.409C445.525 171.851 447.686 170.042 450.358 170.042H680.014V170.046H792.794V174.113Z" fill="#ECECEC"/>
<path d="M719.855 739.217V673.361H491.637C470.398 673.361 453.18 688.104 453.18 706.289C453.18 724.474 470.398 739.217 491.637 739.217H719.855Z" fill="#7AB4BF"/>
<path d="M507.047 673.361H671.836C650.597 673.361 633.379 688.104 633.379 706.289C633.379 724.474 650.597 739.217 671.836 739.217H507.047C485.809 739.217 468.591 724.474 468.591 706.289C468.591 688.104 485.809 673.361 507.047 673.361Z" fill="#B3D9E1"/>
<path d="M869.876 681.34V673.361H508.158L707.392 681.34H869.876Z" fill="#E6E9EC"/>
<mask id="mask4_1_249" style="mask-type:luminance" maskUnits="userSpaceOnUse" x="657" y="673" width="213" height="67">
<path d="M869.876 739.217V673.361H695.781C674.543 673.361 657.324 688.104 657.324 706.289C657.324 724.474 674.543 739.217 695.781 739.217H869.876Z" fill="white"/>
</mask>
<g mask="url(#mask4_1_249)">
<path d="M869.876 739.217V673.361H695.781C674.543 673.361 657.324 688.104 657.324 706.289C657.324 724.474 674.543 739.217 695.781 739.217H869.876Z" fill="#6A9CA6"/>
</g>
<mask id="mask5_1_249" style="mask-type:luminance" maskUnits="userSpaceOnUse" x="668" y="680" width="202" height="52">
<path d="M869.961 680.711H698.296C681.908 680.711 668.624 692.086 668.624 706.118C668.624 720.15 681.908 731.525 698.296 731.525H869.961V680.711Z" fill="white"/>
</mask>
<g mask="url(#mask5_1_249)">
<path d="M869.961 680.711H668.624V731.525H869.961V680.711Z" fill="#F1E7DB"/>
</g>
<mask id="mask6_1_249" style="mask-type:luminance" maskUnits="userSpaceOnUse" x="668" y="680" width="202" height="52">
<path d="M869.961 680.711H698.296C681.908 680.711 668.624 692.086 668.624 706.118C668.624 720.15 681.908 731.525 698.296 731.525H869.961V680.711Z" fill="white"/>
</mask>
<g mask="url(#mask6_1_249)">
<path opacity="0.76" d="M869.961 677.35H668.624V691.318H869.961V677.35Z" fill="#D6CABC"/>
</g>
<mask id="mask7_1_249" style="mask-type:luminance" maskUnits="userSpaceOnUse" x="668" y="680" width="202" height="52">
<path d="M869.961 680.711H698.296C681.908 680.711 668.624 692.086 668.624 706.118C668.624 720.15 681.908 731.525 698.296 731.525H869.961V680.711Z" fill="white"/>
</mask>
<g mask="url(#mask7_1_249)">
<path d="M670.01 736.799H663.835V675.439H670.651C682.736 694.522 683.001 718.793 670.01 736.799Z" fill="#3A3752"/>
</g>
<path d="M666.956 855.434V785.749H424.981C415.312 785.749 407.474 792.46 407.474 800.739V840.441C407.474 848.721 415.312 855.432 424.981 855.432H666.956V855.434Z" fill="#675FA9"/>
<path d="M456.466 785.749H477.936C467.015 785.749 458.164 793.329 458.164 802.678V838.503C458.164 847.854 467.017 855.432 477.936 855.432H456.466C444.256 855.432 434.359 846.958 434.359 836.503V804.675C434.362 794.223 444.258 785.749 456.466 785.749Z" fill="#4B4679"/>
<path d="M602.685 785.749H624.155C613.234 785.749 604.383 793.329 604.383 802.678V838.503C604.383 847.854 613.236 855.432 624.155 855.432H602.685C590.475 855.432 580.579 846.958 580.579 836.503V804.675C580.579 794.223 590.475 785.749 602.685 785.749Z" fill="#4B4679"/>
<mask id="mask8_1_249" style="mask-type:luminance" maskUnits="userSpaceOnUse" x="746" y="692" width="83" height="258">
<path d="M746.839 949.143H828.224V711.063C828.224 700.557 818.276 692.039 806.006 692.039H769.057C756.787 692.039 746.839 700.557 746.839 711.063V949.143Z" fill="white"/>
</mask>
<g mask="url(#mask8_1_249)">
<path d="M937.667 855.434V785.749H637.398V855.434H937.667Z" fill="#8077C7"/>
</g>
<mask id="mask9_1_249" style="mask-type:luminance" maskUnits="userSpaceOnUse" x="649" y="794" width="289" height="54">
<path d="M937.767 794.956H664.864C656.648 794.956 649.99 800.659 649.99 807.692V834.47C649.99 841.505 656.65 847.206 664.864 847.206H937.767V794.956Z" fill="white"/>
</mask>
<g mask="url(#mask9_1_249)">
<path d="M937.765 794.956H649.988V847.207H937.765V794.956Z" fill="#F1E7DB"/>
</g>
<mask id="mask10_1_249" style="mask-type:luminance" maskUnits="userSpaceOnUse" x="649" y="794" width="289" height="54">
<path d="M937.767 794.956H664.864C656.648 794.956 649.99 800.659 649.99 807.692V834.47C649.99 841.505 656.65 847.206 664.864 847.206H937.767V794.956Z" fill="white"/>
</mask>
<g mask="url(#mask10_1_249)">
<path opacity="0.76" d="M937.765 793.883H649.987V810.725H937.765V793.883Z" fill="#D6CABC"/>
</g>
<mask id="mask11_1_249" style="mask-type:luminance" maskUnits="userSpaceOnUse" x="649" y="794" width="289" height="54">
<path d="M937.767 794.956H664.864C656.648 794.956 649.99 800.659 649.99 807.692V834.47C649.99 841.505 656.65 847.206 664.864 847.206H937.767V794.956Z" fill="white"/>
</mask>
<g mask="url(#mask11_1_249)">
<path d="M647.742 794.958V847.209C647.742 847.209 662.271 840.481 662.271 816.734C662.268 795.107 647.742 794.958 647.742 794.958Z" fill="#3A3752"/>
</g>
<path d="M424.981 785.749H637.397H666.956H937.665V793.048H666.956H637.397H409.974C413.032 788.68 418.599 785.749 424.981 785.749Z" fill="#E6E0EC"/>
<path d="M937.667 848.605V855.432H424.981C418.831 855.432 413.431 852.71 410.31 848.605H937.667Z" fill="#E6E0EC"/>
<path d="M619.091 274.371V327.525H434.513C427.138 327.525 421.159 322.406 421.159 316.091V285.805C421.159 279.488 427.138 274.371 434.513 274.371H619.091Z" fill="#DB902E"/>
<path d="M458.135 327.525H561.642C553.312 327.525 546.561 321.742 546.561 314.612V287.284C546.561 280.152 553.315 274.371 561.642 274.371H458.135C448.822 274.371 441.273 280.834 441.273 288.809V313.087C441.273 321.06 448.824 327.525 458.135 327.525Z" fill="#E3B84C"/>
<mask id="mask12_1_249" style="mask-type:luminance" maskUnits="userSpaceOnUse" x="658" y="221" width="63" height="160">
<path d="M658.24 221.543H720.318V365.84C720.318 373.855 712.73 380.351 703.372 380.351H675.188C665.828 380.351 658.242 373.853 658.242 365.84V221.543H658.24Z" fill="white"/>
</mask>
<g mask="url(#mask12_1_249)">
<path d="M596.544 274.37V327.524H782.014V274.37H596.544Z" fill="#E3B84C"/>
</g>
<mask id="mask13_1_249" style="mask-type:luminance" maskUnits="userSpaceOnUse" x="606" y="280" width="177" height="41">
<path d="M782.09 320.5H617.492C611.226 320.5 606.147 316.15 606.147 310.785V290.36C606.147 284.995 611.226 280.645 617.492 280.645H782.087V320.5H782.09Z" fill="white"/>
</mask>
<g mask="url(#mask13_1_249)">
<path d="M782.09 280.643H606.147V320.5H782.09V280.643Z" fill="#F1E7DB"/>
</g>
<mask id="mask14_1_249" style="mask-type:luminance" maskUnits="userSpaceOnUse" x="606" y="280" width="177" height="41">
<path d="M782.09 320.5H617.492C611.226 320.5 606.147 316.15 606.147 310.785V290.36C606.147 284.995 611.226 280.645 617.492 280.645H782.087V320.5H782.09Z" fill="white"/>
</mask>
<g mask="url(#mask14_1_249)">
<path opacity="0.76" d="M782.09 280.643H606.147V293.49H782.09V280.643Z" fill="#D6CABC"/>
</g>
<mask id="mask15_1_249" style="mask-type:luminance" maskUnits="userSpaceOnUse" x="606" y="280" width="177" height="41">
<path d="M782.09 320.5H617.492C611.226 320.5 606.147 316.15 606.147 310.785V290.36C606.147 284.995 611.226 280.645 617.492 280.645H782.087V320.5H782.09Z" fill="white"/>
</mask>
<g mask="url(#mask15_1_249)">
<path d="M604.432 320.5V280.643C604.432 280.643 617.492 280.645 615.516 303.891C614.113 320.341 604.432 320.5 604.432 320.5Z" fill="#3A3752"/>
</g>
<path d="M607.925 786.435V739.219H771.547C786.775 739.219 799.118 749.79 799.118 762.827C799.118 775.866 786.773 786.435 771.547 786.435H607.925Z" fill="#64704D"/>
<path d="M754.912 739.217H738.019C753.247 739.217 765.59 749.786 765.59 762.825C765.59 775.864 753.245 786.433 738.019 786.433H754.912C770.14 786.433 782.484 775.864 782.484 762.825C782.484 749.788 770.14 739.217 754.912 739.217Z" fill="#808F62"/>
<path d="M665.527 739.217H648.634C663.862 739.217 676.205 749.786 676.205 762.825C676.205 775.864 663.86 786.433 648.634 786.433H665.527C680.755 786.433 693.099 775.864 693.099 762.825C693.099 749.788 680.753 739.217 665.527 739.217Z" fill="#808F62"/>
<path d="M392.936 744.939V739.217H759.705L616.86 744.939H392.936Z" fill="#E6E9EC"/>
<mask id="mask16_1_249" style="mask-type:luminance" maskUnits="userSpaceOnUse" x="392" y="739" width="261" height="48">
<path d="M392.936 786.435V739.219H625.185C640.414 739.219 652.757 749.79 652.757 762.827C652.757 775.866 640.411 786.435 625.185 786.435H392.936V786.435Z" fill="white"/>
</mask>
<g mask="url(#mask16_1_249)">
<path d="M392.936 786.435V739.219H625.185C640.414 739.219 652.757 749.79 652.757 762.827C652.757 775.866 640.411 786.435 625.185 786.435H392.936Z" fill="#808F62"/>
</g>
<mask id="mask17_1_249" style="mask-type:luminance" maskUnits="userSpaceOnUse" x="392" y="744" width="253" height="37">
<path d="M644.656 780.919H414.149C402.401 780.919 392.876 772.763 392.876 762.703C392.876 752.643 402.401 744.488 414.149 744.488H644.656V780.919Z" fill="white"/>
</mask>
<g mask="url(#mask17_1_249)">
<path d="M392.876 780.919H644.656V744.488H392.876V780.919Z" fill="#F1E7DB"/>
</g>
<mask id="mask18_1_249" style="mask-type:luminance" maskUnits="userSpaceOnUse" x="392" y="713" width="253" height="38">
<path d="M644.656 750.028H414.149C402.401 750.028 392.876 741.872 392.876 731.813C392.876 721.753 402.401 713.597 414.149 713.597H644.656V750.028Z" fill="white"/>
</mask>
<g mask="url(#mask18_1_249)">
<path d="M392.876 751.284H644.656V743.23H392.876V751.284Z" fill="#ECE6E8"/>
</g>
<mask id="mask19_1_249" style="mask-type:luminance" maskUnits="userSpaceOnUse" x="392" y="744" width="253" height="37">
<path d="M392.876 744.487H623.382C635.131 744.487 644.656 752.643 644.656 762.703C644.656 772.763 635.131 780.919 623.382 780.919H392.876V744.487Z" fill="white"/>
</mask>
<g mask="url(#mask19_1_249)">
<path d="M643.661 784.7H648.089V740.708H643.203C634.537 754.389 634.348 771.791 643.661 784.7Z" fill="#3A3752"/>
</g>
<path d="M540.754 673.363H901.344V601.88H540.754V673.363Z" fill="#9F6A64"/>
<path d="M540.753 664.435H901.343V673.321C901.343 673.344 901.321 673.361 901.296 673.361H540.753V664.435Z" fill="#D8D3D9"/>
<path d="M540.753 601.88H901.343V606.316C901.343 606.331 901.327 606.344 901.31 606.344H540.753V601.88Z" fill="#E6E9EC"/>
<path d="M562.793 647.558V627.684C569.867 627.684 575.604 622.774 575.604 616.717H869.008C869.008 622.774 874.742 627.684 881.817 627.684V647.558C874.742 647.558 869.008 652.468 869.008 658.525H575.604C575.604 652.47 569.869 647.558 562.793 647.558Z" fill="#C9A39F"/>
<path d="M375.047 439.989L774.625 439.989V375.824L375.047 375.824V439.989Z" fill="#CF423D"/>
<path d="M488.698 376.263H430.008V439.989H488.698V376.263Z" fill="#AB3632"/>
<path d="M723.463 376.263H664.773V439.989H723.463V376.263Z" fill="#AB3632"/>
<path d="M774.624 375.823V380.857C774.624 380.87 774.601 380.88 774.572 380.88H375.045V375.823" fill="#D8D3D9"/>
<path d="M362 526.361H818.406V439.989L362 439.989V526.361Z" fill="#F1E7DB"/>
<path d="M362 471.538L818.406 471.538V449.018L362 449.018V471.538Z" fill="#E6D9CA"/>
<path d="M352.086 526.361H828.323V517.462H352.086V526.361Z" fill="#675FA9"/>
<path d="M352.086 448.887L828.323 448.887V439.988L352.086 439.988V448.887Z" fill="#675FA9"/>
<path d="M352.086 445.387L828.323 445.387V439.989L352.086 439.989V445.387Z" fill="#E6E0EC"/>
<path d="M685.067 171.012V122.215H515.967C500.229 122.215 487.472 133.138 487.472 146.613C487.472 160.089 500.229 171.012 515.967 171.012H685.067Z" fill="#E66443"/>
<path d="M853.742 165.1V171.012H515.969C508.87 171.012 502.395 168.776 497.406 165.1H853.742Z" fill="#E6E9EC"/>
<path d="M853.742 128.127V122.215H528.21L675.834 128.127H853.742Z" fill="#E6E9EC"/>
<mask id="mask20_1_249" style="mask-type:luminance" maskUnits="userSpaceOnUse" x="638" y="122" width="216" height="50">
<path d="M853.742 171.012V122.215H667.232C651.495 122.215 638.737 133.138 638.737 146.613C638.737 160.089 651.495 171.012 667.232 171.012H853.742Z" fill="white"/>
</mask>
<g mask="url(#mask20_1_249)">
<path d="M853.742 171.012V122.215H667.232C651.495 122.215 638.737 133.138 638.737 146.613C638.737 160.089 651.495 171.012 667.232 171.012H853.742Z" fill="#BD5136"/>
</g>
<mask id="mask21_1_249" style="mask-type:luminance" maskUnits="userSpaceOnUse" x="647" y="127" width="207" height="39">
<path d="M853.802 127.66H669.093C656.951 127.66 647.107 136.088 647.107 146.486C647.107 156.883 656.951 165.311 669.093 165.311H853.802V127.66Z" fill="white"/>
</mask>
<g mask="url(#mask21_1_249)">
<path d="M853.802 127.66H647.107V165.311H853.802V127.66Z" fill="#F1E7DB"/>
</g>
<mask id="mask22_1_249" style="mask-type:luminance" maskUnits="userSpaceOnUse" x="647" y="127" width="207" height="39">
<path d="M853.802 127.66H669.093C656.951 127.66 647.107 136.088 647.107 146.486C647.107 156.883 656.951 165.311 669.093 165.311H853.802V127.66Z" fill="white"/>
</mask>
<g mask="url(#mask22_1_249)">
<path d="M853.802 127.66H647.107V134.588H853.802V127.66Z" fill="#E6D9CA"/>
</g>
<mask id="mask23_1_249" style="mask-type:luminance" maskUnits="userSpaceOnUse" x="647" y="127" width="207" height="39">
<path d="M853.802 127.66H669.093C656.951 127.66 647.107 136.088 647.107 146.486C647.107 156.883 656.951 165.311 669.093 165.311H853.802V127.66Z" fill="white"/>
</mask>
<g mask="url(#mask23_1_249)">
<path d="M648.136 169.219H643.561V123.753H648.612C657.565 137.893 657.761 155.877 648.136 169.219Z" fill="#39354F"/>
</g>
<path d="M280.935 855.956H270.005L208.71 536.709H219.639L280.935 855.956Z" fill="#716E80"/>
<path d="M385.276 855.956H374.344L313.049 536.709H323.981L385.276 855.956Z" fill="#716E80"/>
<path d="M372.784 790.891H257.513L255.282 779.28H370.553L372.784 790.891Z" fill="#716E80"/>
<path d="M356.185 704.442H240.913L238.685 692.831H353.956L356.185 704.442Z" fill="#716E80"/>
<path d="M339.588 617.996H224.316L222.088 606.383H337.357L339.588 617.996Z" fill="#716E80"/>
<path d="M325.096 542.514H209.825L206.108 523.159H321.379L325.096 542.514Z" fill="#716E80"/>
<path d="M223.466 855.956H234.398L295.693 536.709H284.761L223.466 855.956Z" fill="#9D9BA7"/>
<path d="M119.127 855.956H130.056L191.351 536.709H180.422L119.127 855.956Z" fill="#9D9BA7"/>
<path d="M131.619 790.891H246.89L249.118 779.28H133.847L131.619 790.891Z" fill="#9D9BA7"/>
<path d="M148.216 704.442H263.487L265.718 692.831H150.447L148.216 704.442Z" fill="#9D9BA7"/>
<path d="M164.813 617.996H280.084L282.315 606.383H167.044L164.813 617.996Z" fill="#9D9BA7"/>
<path d="M179.307 542.514H294.578L298.293 523.159H183.022L179.307 542.514Z" fill="#716E80"/>
<path d="M181.11 532.838H323.231V517.216H181.11V532.838Z" fill="url(#paint0_linear_1_249)"/>
<path d="M349.417 801.544C352.781 807.351 354.223 815.922 351.154 821.273C348.084 826.623 331.178 823.909 323.057 814.849C314.937 805.788 320.94 799.76 324.092 796.565C327.246 793.369 343.022 790.498 349.417 801.544Z" fill="#73283A"/>
<path d="M366.451 760.45C359.995 758.693 353.856 756.333 347.79 753.829C345.562 757.09 343.492 760.218 341.715 763.025C330.387 780.936 312.764 814.819 302.2 824.795C295.847 830.793 283.67 843.531 277.665 845.62C271.639 847.728 260.133 849.224 262.367 850.796C266.811 853.924 284.202 851.744 290.228 851.048C296.254 850.352 303.573 852.821 307.782 850.038C311.992 847.232 306.841 843.74 311.426 837.174C321.679 822.492 350.161 800.07 360.3 789.915C368.165 782.038 376.466 771.267 382.166 763.439C376.811 762.817 371.528 761.832 366.451 760.45Z" fill="#EAAD96"/>
<path d="M482.866 676.386C507.486 667.346 529.258 678.913 529.258 692.659C529.258 720.037 485.215 743.411 468.319 743.597C429.758 744.024 405.488 755.96 401.506 757.9C397.523 759.84 351.154 821.273 351.154 821.273C351.764 821.425 342.377 821.644 334.062 817.1C325.831 812.6 320.125 809.804 314.104 804.852C314.104 804.852 360.018 734.942 364.545 726.899C369.073 718.856 391.542 710 408.411 703.657C433.326 694.287 466.912 682.245 482.866 676.386Z" fill="#A33953"/>
<path d="M521.993 493.946C525.078 495.606 512.741 500.607 511.697 504.087C510.656 507.568 508.067 514.536 504.661 525.09C500.728 537.279 528.479 542.833 511.038 562.6C511.038 562.6 490.435 573.757 482.902 573.403C482.902 573.403 467.818 559.472 486.831 540.263C492.471 534.564 486.831 509.623 497.086 499.408C504.852 491.674 514.691 490.017 521.993 493.946Z" fill="#583834"/>
<path d="M492.482 567.897C483.961 569.945 473.666 577.549 470.461 586.642C467.255 595.736 461.209 611.533 456.702 622.202C456.702 622.202 450.959 619.85 444.692 616.421C436.243 611.799 430.021 608.212 430.021 608.212C427.875 618.76 422.806 617.859 422.806 617.859C422.806 617.859 436.795 631.483 446.703 640.159C457.919 649.982 468.446 655.557 475.565 641.767C482.686 627.978 486.902 620.899 493.357 604.343C504.018 577.009 492.482 567.897 492.482 567.897Z" fill="#EAAD96"/>
<path d="M497.333 533.234C500.57 553.765 491.661 569.196 492.482 567.897C492.482 567.897 511.043 562.497 518.467 556.92C529.806 548.4 549.586 559.287 549.586 559.287C549.586 559.287 554.808 543.088 550.563 524.832C546.318 506.577 544.593 501.307 533.548 497.971C522.505 494.636 509.017 500.796 509.017 500.796C509.017 500.796 493.228 507.196 497.333 533.234Z" fill="#583834"/>
<path d="M545.352 568.581C545.352 568.581 535.504 567.994 535.059 560.334C534.783 555.614 538.049 541.607 538.049 541.607L511.766 538.531C511.766 538.531 512.984 557.434 509.645 560.549C507.646 562.411 499.018 564.969 499.018 564.969L487.935 577.377L511.973 603.867L555.636 583.219L545.352 568.581Z" fill="#EAAD96"/>
<path opacity="0.5" d="M501.338 564.235C512.724 563.879 524.112 561.855 535.084 558.662C535.406 552.959 538.049 541.609 538.049 541.609L511.766 538.533C511.766 538.533 512.984 557.436 509.645 560.551C508.314 561.792 504.042 563.339 501.338 564.235Z" fill="#B89692"/>
<path d="M504.423 507.41C498.088 514.046 498.842 517.744 499.198 527.217C499.506 535.359 499.216 539.305 500.645 542.886C502.088 546.502 507.009 553.48 513.714 556.562C515.056 557.177 518.4 557.549 521.026 557.032C529.899 555.287 543.509 547.009 546.501 541.87C548.693 538.102 550.094 531.218 550.566 524.83C551.029 518.554 551.465 510.412 551.434 505.717C551.322 489.143 516.018 495.265 504.423 507.41Z" fill="#EAAD96"/>
<path d="M398.639 801.544C401.78 807.351 409.001 818.13 406.134 823.48C403.267 828.83 379.622 826.808 372.036 817.746C364.45 808.687 369.091 796.386 372.036 793.19C374.981 789.995 392.664 790.498 398.639 801.544Z" fill="#73283A"/>
<path d="M415.547 754.389C410.154 752.432 404.765 750.488 399.574 748.311C396.137 753.533 392.9 758.66 390.32 763.025C379.738 780.936 359.479 814.819 349.609 824.795C343.674 830.793 333.673 840.205 328.061 842.292C322.432 844.402 309.601 846.598 312.399 850.795C315.213 854.992 332.796 851.742 338.425 851.046C344.055 850.35 351.452 854.938 355.383 852.155C359.316 849.35 353.943 843.74 358.228 837.174C367.806 822.492 398.209 800.07 407.681 789.915C416.3 780.673 425.482 767.449 430.637 759.671C425.589 757.997 420.569 756.213 415.547 754.389Z" fill="#EAAD96"/>
<path d="M548.026 669.42C545.791 692.265 553.128 702.9 553.128 716.648C553.128 744.026 518.976 738.158 503.325 739.917C476.215 742.961 464.646 749.666 460.927 751.604C457.207 753.545 406.131 823.48 406.131 823.48C406.131 823.48 394.071 821.04 387.351 815.924C380.214 810.492 376.579 808.535 363.624 806.208C363.624 806.208 407.418 734.938 411.648 726.895C415.877 718.852 483.002 688.308 497.878 686.513C512.755 684.717 548.026 669.42 548.026 669.42Z" fill="#A33953"/>
<path d="M363.624 806.209C378.618 781.805 393.75 757.446 408.248 732.821C414.613 722.01 425.115 716.957 437.28 710.852C448.207 705.369 459.66 699.643 471.469 694.867" stroke="#73283A" stroke-width="0.913" stroke-miterlimit="10"/>
<path d="M573.064 604.972C571.111 614.258 568.171 624.089 566.711 631.1C563.323 647.257 558.693 642.556 556.186 659.219C554.639 669.5 561.718 689.974 562.989 697.508C546.957 706.794 524.227 693.971 514.34 690.481C492.431 682.746 474.928 685.428 466.786 682.245C471.914 677.391 481.989 649.571 480.507 639.396C478.977 628.841 467.709 615.689 470.839 610.713C473.969 605.717 492.482 567.897 492.482 567.897L499.025 564.963C499.025 564.963 490.279 585.489 509.46 589.877C539.511 596.75 554.9 567.897 554.9 567.897C554.9 567.897 563.403 571.198 572.861 574.03C572.861 574.03 575.581 592.865 573.064 604.972Z" fill="#BF5A73"/>
<path d="M525.381 513.387C531.264 513.97 536.902 513.886 536.137 525.088C534.914 542.966 536.555 547.775 527.771 565.708C522.427 576.624 542.309 581.479 553.753 574.661C556.402 573.083 561.809 571.758 564.353 571.939C576.661 572.822 572.3 559.245 563.848 547.378C555.634 535.843 557.602 526.262 557.602 520.799C557.602 508.288 552.438 498.688 541.67 493.294C530.104 487.501 515.76 489.07 507.971 495.598C506.037 497.22 502.954 499.004 502.769 501.634C502.428 506.516 503.568 511.227 525.381 513.387Z" fill="#583834"/>
<path d="M421.315 618.649C414.003 612.556 414.016 610.282 412.54 605.149C411.064 600.016 414.176 599.33 414.176 599.33C414.176 599.33 421.141 602.599 426.25 608.99C431.359 615.381 429.798 618.649 429.798 618.649H421.315Z" fill="#EAAD96"/>
<path d="M435.788 579.786C435.788 579.786 435.519 576.35 439.786 572.66C444.054 568.97 490.341 561.687 490.341 561.687L493.177 572.662L446.219 584.852L435.788 579.786Z" fill="#FAEBD9"/>
<path d="M494.967 568.638L510.526 623.165C510.526 623.165 470.97 631.366 460.377 635.569L441.908 578.928L494.967 568.638Z" fill="#4E86D2"/>
<path d="M436.243 587.704L435.788 579.788C435.788 579.788 434.936 573.716 430.74 571.169C426.544 568.623 410.405 564.302 410.405 564.302L406.385 570.702L436.243 587.704Z" fill="#FAEBD9"/>
<path d="M447.767 634.879C447.767 634.879 454.774 639.072 460.377 635.567L441.908 578.927C441.908 578.927 435.038 581.273 429.01 578.223L447.767 634.879Z" fill="#4E86D2"/>
<path d="M404.734 568.68L429.008 578.223L447.767 634.879L424.153 624.716L404.734 568.68Z" fill="#4E86D2"/>
<path d="M412.609 591.924C415.53 591.804 419.129 593.597 420.409 595.696C421.689 597.796 420.451 597.987 419.174 597.994C417.896 598 416.658 598.192 416.658 598.192C416.658 598.192 419.216 600.287 421.921 601.017C424.625 601.747 426.375 603.009 425.438 604.686C424.503 606.363 424.013 606.057 422.21 605.569C422.21 605.569 424.861 607.074 424 609.121C423.14 611.17 420.037 609.543 420.037 609.543C420.037 609.543 423.025 610.612 422.577 612.598C422.13 614.582 420.1 612.981 418.127 612.712C416.155 612.442 412.825 609.703 412.729 608.186C412.634 606.668 412.536 605.151 412.536 605.151C412.536 605.151 411.819 603.729 411.44 601.873C411.062 600.016 411.062 600.016 411.062 600.016L411.639 597.628C411.643 597.626 409.23 592.063 412.609 591.924Z" fill="#EAAD96"/>
<path d="M572.861 574.03C561.517 571.306 558.584 584.85 557.435 598.724C556.391 611.344 552.226 639.396 552.226 639.396C552.226 639.396 527.284 625.324 515.746 616.494C514.642 615.648 513.649 614.919 512.953 614.264C509.736 611.237 505.841 604.785 503.877 596.95C503.784 596.576 504.251 595.208 502.217 594.043C497.504 591.346 496.756 588.327 494.217 585.92C491.487 583.333 489.355 580.922 488.253 581.995C487.153 583.068 488.509 584.658 489.667 586.188C490.824 587.719 494.096 592.255 495.056 593.729C496.015 595.202 495.735 595.648 495.156 595.737C493.678 595.964 491.993 594.977 489.411 594.226C486.828 593.475 479.44 589.865 478.269 591.115C477.099 592.368 478.541 593.519 483.149 595.522C485.778 596.664 490.386 600.333 490.386 600.333C490.386 600.333 488.992 599.454 485.76 598.114C482.528 596.776 479.057 594.979 478.227 596.63C477.648 597.777 481.606 599.502 481.606 599.502C481.606 599.502 480.186 599.721 480.983 601.183C481.706 602.509 483.712 602.449 485.987 604.444C487.592 605.853 490.272 611.048 493.052 611.858C495.833 612.669 497.845 619.225 502.415 620.556C505.801 621.541 528.773 644.243 530.16 645.37C543.264 656.019 557.742 665.388 565.335 657.814C572.93 650.241 580.153 610.734 580.189 593.349C580.214 581.732 578.319 575.341 572.861 574.03Z" fill="#EAAD96"/>
<path d="M310.718 846.062C307.551 848.378 297.478 848.782 290.061 849.279C282.644 849.777 279.091 843.636 279.091 843.636C265.793 847.594 258.577 848.157 254.625 850.04C249.236 852.607 253.495 854.345 260.892 855.108C270.35 856.084 279.256 855.802 286.591 855.024C289.787 854.685 302.433 855.037 304.052 855.087C312.143 855.337 313.125 852.438 311.602 848.41C310.718 846.062 310.718 846.062 310.718 846.062Z" fill="#73283A"/>
<path d="M357.182 844.72C354.014 847.036 347.703 848.262 340.647 847.753C331.387 847.086 328.063 842.294 328.063 842.294C314.765 846.253 310.741 846.458 306.792 848.342C301.403 850.909 304.61 853.389 312.007 854.151C321.466 855.127 325.722 854.46 333.056 853.682C336.253 853.343 348.899 853.696 350.517 853.745C358.609 853.995 359.59 851.096 358.068 847.068C357.182 844.72 357.182 844.72 357.182 844.72Z" fill="#73283A"/>
<path d="M854.261 752.691C850.57 753.133 845.822 755.531 844.248 759.764C842.675 763.997 849.847 768.023 851.981 773.411C854.116 778.799 859.728 786.576 867.37 788.499C875.012 790.424 879.982 786.555 878.304 779.617C876.626 772.679 863.63 758.849 863.63 758.849L854.261 752.691Z" fill="#A6ABB7"/>
<path d="M827.453 552.244C827.453 552.244 850.201 574.171 868.3 592.596L858.537 664.807C858.537 664.807 857.09 633.427 830.167 617.153C803.243 600.88 764.647 555.016 764.647 555.016L827.453 552.244Z" fill="#3A3752"/>
<path d="M823.255 489.007C823.255 489.007 844.444 499.08 848.725 500.192C853.008 501.303 858.056 502.713 863.728 500.192C869.4 497.67 881.946 486.449 884.334 479.397L872.334 473.915L853.569 487.759L831.467 478.437L823.255 489.007Z" fill="#EAAD96"/>
<path d="M787.35 453.893L811.562 445.619C811.562 445.619 818.761 448.838 824.844 458.574C830.928 468.312 841.847 478.53 841.847 478.53L821.899 498.457C821.899 498.457 807.978 486.308 801.231 476.008C794.486 465.704 787.35 453.893 787.35 453.893Z" fill="#667DB3"/>
<path d="M766.258 405.349C766.258 405.349 764.702 415.626 763.427 420.856C762.151 426.084 760.028 427.888 758.541 429.149C757.054 430.411 740.27 440.149 740.27 440.149C740.27 440.149 776.89 498.587 787.452 468.152C790.787 458.542 804.427 442.672 804.427 442.672C804.427 442.672 791.661 434.109 789.758 429.78C787.855 425.452 786.793 412.922 786.793 412.922L766.258 405.349Z" fill="#EAAD96"/>
<path d="M780.758 434.526C782.53 435.632 784.311 436.724 786.119 437.783C789.271 439.627 792.474 441.405 795.726 443.115C797.669 444.136 799.673 445.07 801.652 446.04C803.308 443.984 804.43 442.672 804.43 442.672C804.43 442.672 791.664 434.109 789.76 429.78C787.857 425.452 786.795 412.922 786.795 412.922L766.256 405.349C766.256 405.349 764.7 415.626 763.425 420.856C763.42 420.872 763.416 420.883 763.413 420.896C768.958 425.608 774.73 430.135 780.758 434.526Z" fill="#E6E9EC"/>
<path d="M848.482 578.829C855.924 577.449 870.613 591.685 878.199 609.015C883.633 621.428 881.307 638.617 878.947 662.415C877.345 678.563 871.737 750.88 871.737 750.88H849.78C849.78 750.88 845.711 709.644 844.146 679.478C841.849 635.205 841.237 628.014 841.237 628.014L791.1 578.831C791.1 578.831 837.014 580.956 848.482 578.829Z" fill="#3A3752"/>
<path d="M781.92 560.608C800.294 559.977 829.169 553.716 827.453 552.244C823.629 548.968 818.912 512.727 818.785 503.35C818.429 476.933 811.562 445.617 811.562 445.617L793.916 434.608C793.916 434.608 793.126 445.125 779.389 446.075C749.334 448.15 750.491 434.149 750.491 434.149C750.491 434.149 731.924 440.724 724.385 446.042C714.219 453.214 713.52 462.083 719.486 496.772C721.947 511.088 721.582 528.463 723.446 541.615C724.95 552.246 722.457 578.738 731.606 578.101C746.899 572.951 764.927 560.107 781.92 560.608Z" fill="#5C70A1"/>
<path d="M871.254 750.665L851.14 750.217C851.14 750.217 851.187 752.054 850.57 753.131C849.544 754.925 847.863 756.844 849.769 761.028C852.478 766.982 860.607 781.799 867.114 784.933C870.613 786.618 874.883 786.13 877.476 783.37C879.78 780.921 877.066 774.852 875.477 768.6C873.244 759.815 871.254 750.665 871.254 750.665Z" fill="#3A3752"/>
<path d="M872.605 473.837C872.605 473.837 873.106 470.49 868.356 466.743C863.608 462.996 822.158 459.573 822.158 459.573L818.269 470.193L860.229 478.433L872.605 473.837Z" fill="#FAEBD9"/>
<path d="M816.415 466.204L802.291 517.452C802.291 517.452 842.298 521.783 854.354 526.243L870.21 473.689L816.415 466.204Z" fill="#64704D"/>
<path d="M871.646 481.553L872.605 473.837C872.605 473.837 869.68 468.245 872.403 464.416C875.127 460.587 889.033 450.603 889.033 450.603L897.178 454.596L871.646 481.553Z" fill="#FAEBD9"/>
<path d="M863.038 525.438C863.038 525.438 858.646 528.118 854.354 526.243L870.21 473.689C870.21 473.689 876.975 474.506 880.554 472.539L863.038 525.438Z" fill="#64704D"/>
<path d="M897.615 452.206L880.552 472.539L863.038 525.438L877.385 513.421L897.615 452.206Z" fill="#64704D"/>
<path opacity="0.13" d="M855.073 495.413L858.982 480.184L823.905 475.74L820.029 491.106L855.073 495.413Z" fill="#A5BDD1"/>
<path d="M829.969 485.576C829.523 485.576 828.633 485.948 827.527 486.581C827.605 486.415 827.685 486.223 827.76 485.988C828.401 484.012 823.397 486.669 820.143 489.245C816.891 491.822 809.389 495.467 809.389 495.467C806.934 495.488 811.317 486.322 810.213 484.966C809.107 483.611 808.167 485.843 805.3 493.313C803.962 496.795 799.675 500.466 795.225 503.068C793.656 503.986 789.398 504.918 784.202 505.952C783.51 506.079 753.568 511.021 749.641 512.31C749.641 512.31 746.246 495.779 742.456 485.502C731.851 486.529 725.685 489.926 715.058 490.824C715.913 505.57 721.07 517.125 724.387 526.912C726.27 532.464 731.577 536.974 740.272 534.86C745.065 533.695 792.868 515.644 796.191 514.313C802.589 511.753 808.982 510.572 810.97 509.394C814.2 507.482 820.895 503.043 823.253 501.44C825.439 499.953 824.375 498.253 824.208 498.011C824.315 497.986 824.904 497.254 826.525 495.413C827.792 493.976 827.493 491.453 827.493 491.453C829.176 489.852 829.283 489.057 829.969 488.077C831.402 486.032 830.663 485.576 829.969 485.576Z" fill="#EAAD96"/>
<path d="M890.108 475.741C889.594 475.68 889.75 477.316 889.336 477.651C886.291 480.112 881.176 482.037 882.765 482.729C883.426 483.019 884.374 483.537 884.374 483.537C884.374 483.537 883.617 484.951 884.183 485.407C884.748 485.862 884.862 486.304 884.786 486.634C884.71 486.964 883.609 489.085 883.987 489.371C884.363 489.655 883.8 491.075 884.107 491.525C884.414 491.973 885.002 491.712 886.509 490.978C888.014 490.244 889.717 487.738 890.678 485.733C892.682 481.539 891.012 475.848 890.108 475.741Z" fill="#EAAD96"/>
<path d="M748.969 501.602C748.969 501.602 739.499 461.122 737.253 456.965C727.826 439.516 717.943 446.052 710.593 467.78C708.282 474.615 706.964 498.823 713.064 511.759C721.903 514.481 737.253 506.47 748.969 501.602Z" fill="#667DB3"/>
<path d="M827.182 590.292C821.26 579.769 808.79 575.233 793.389 560.334C793.389 560.334 782.615 560.623 764.644 562.394C749.643 563.871 730.92 569.519 730.92 569.519C729.002 577.43 729.756 587.61 741.089 599.071C748.519 606.583 758.483 602.511 778.414 609.302C782.495 612.213 785.07 614.546 785.07 614.546C785.07 614.546 785.433 626.15 777.782 654.972C770.131 683.795 766.356 715.613 766.356 715.613L786.86 712.638C786.86 712.638 805.467 681.603 812.677 668.631C831.255 635.203 832.664 622.092 834.614 612.598C836.388 603.99 832.526 596.408 827.182 590.292Z" fill="#3A3752"/>
<path d="M812.681 668.629C831.26 635.201 832.669 622.09 834.619 612.596C836.386 603.989 831.355 590.092 805.926 571.051" stroke="#242430" stroke-width="0.8561" stroke-miterlimit="10"/>
<path d="M814.269 395.228C813.997 400.887 810.965 413.511 808.679 418.558C805.512 425.547 799.886 430.817 793.382 432.62C786.878 434.423 777.244 427.562 773.099 422.232C768.954 416.903 769.938 410.082 769.962 403.643C769.987 397.205 773.052 390.749 773.052 390.749C773.052 390.749 772.573 380.041 779.601 376.99C806.536 365.3 814.54 389.571 814.269 395.228Z" fill="#EAAD96"/>
<path d="M819.776 390.092C812.003 390.341 801.155 393.907 792.06 391.205C786.052 389.419 780.117 386.148 780.117 386.148C778.831 390.164 781.6 390.825 781.086 394.325C780.574 397.824 774.724 400.064 774.724 400.064C774.724 400.064 773.048 405.305 771.106 406.62C769.165 407.936 764.518 419.055 764.518 419.055C764.518 419.055 760.357 408.355 760.115 406.657C759.872 404.956 754.251 401.2 752.023 395.562C749.795 389.924 753.851 367.869 769.875 369.166C769.875 369.166 787.174 359.094 807.653 373.328C815.517 378.793 819.776 390.092 819.776 390.092Z" fill="#372B2C"/>
<path d="M774.416 401.375C774.775 398.783 776.4 392.32 769.631 391.287C762.859 390.254 763.287 399.263 765.334 401.505C767.385 403.744 769.778 408.397 769.778 408.397C769.778 408.397 773.878 405.261 774.416 401.375Z" fill="#EAAD96"/>
<path d="M787.893 711.218C784.632 709.28 777.722 708.298 773.718 709.125C769.713 709.953 766.178 708.674 766.178 708.674C766.178 708.674 761.744 715.286 762.476 717.573C763.943 722.155 772.177 733.305 781.003 739.412C788.238 744.417 796.107 745.324 798.983 742.467C802.814 738.665 787.893 711.218 787.893 711.218Z" fill="#3A3752"/>
<path d="M795.181 745.547C790.328 746.182 786.829 745.829 781.005 743.214C774.283 740.195 761.55 725.708 760.184 721.724C759.685 720.27 761.891 717.367 762.418 715.922C763.231 713.702 772.522 733.015 781.858 738.731C785.389 740.893 795.325 744.232 798.987 742.467C798.987 742.467 797.856 745.196 795.181 745.547Z" fill="#A6ABB7"/>
<path d="M283.837 417.506C278.604 417.544 276.592 412.941 271.229 412.596C269.391 422.156 264.264 434.174 262.414 438.401C258.873 446.502 250.318 448.108 245.203 451.854C243.487 453.115 241.35 454.587 239.426 456.123C246.937 455.997 258.893 456.63 266.236 455.126C273.132 453.714 275.479 449.374 282.399 447.969C281.916 446.071 281.124 443.686 280.57 440.174C279.61 434.08 281.206 426.052 283.837 417.506Z" fill="#EAAD96"/>
<path d="M282.299 445.59C279.354 448.596 270.733 452.715 262.969 453.262C252.778 453.979 249.592 448.871 249.592 448.871C242.231 454.106 232.205 455.856 228.412 459.129C223.633 463.251 227.117 464.944 235.306 464.622C245.777 464.208 250.254 462.823 258.049 460.837C261.446 459.971 273.29 458.441 275.058 458.242C283.891 457.255 286.293 453.901 283.786 449.765C282.324 447.355 282.299 445.59 282.299 445.59Z" fill="#614630"/>
<path d="M445.532 259.21L394.846 250.889C394.846 250.889 390.565 268.489 384.815 272.409C380.659 275.244 350.019 284.732 338.564 287.562C328.46 290.059 305.378 296.856 299.713 301.367C295.524 304.707 290.075 310.283 286.139 326.037C281.807 343.375 266.236 428.896 266.236 428.896C266.236 428.896 270.107 435.09 280.398 433.598C280.398 433.598 291.724 406.544 311.687 371.5C319.166 358.374 326.463 333.87 326.463 333.87C326.463 333.87 356.527 329.976 386.115 328.598C412.923 327.35 434.166 329.511 442.658 324.977C470.617 310.045 445.532 273.069 445.532 259.21Z" fill="#8F6D52"/>
<path d="M343.209 455.574C335.474 440.682 340.518 408.437 339.866 390.894L315.789 391.13C319.727 413.086 326.171 447.052 325.203 458.233C324.457 466.859 324.244 477.257 322.688 482.864C321.145 488.5 317.799 497.571 323.961 498.23C330.134 498.876 338.39 483.476 341.386 478.772C344.382 474.07 353.981 471.518 353.711 466.717C353.422 461.902 347.138 463.135 343.209 455.574Z" fill="#EAAD96"/>
<path d="M345.807 459.195C346.101 463.112 343.185 471.188 338.007 476.172C331.211 482.716 322.291 480.6 322.291 480.6C321.185 488.738 317.842 496.235 317.735 500.843C317.601 506.653 321.486 505.816 327.151 500.742C334.392 494.254 336.516 490.604 340.553 484.561C342.314 481.926 349.649 473.818 350.769 472.629C356.363 466.692 355.394 462.847 350.25 461.338C347.249 460.457 345.807 459.195 345.807 459.195Z" fill="#614630"/>
<path d="M379.767 189.554C375.181 206.528 371.862 219.051 371.862 219.051C367.542 217.633 334.599 212.195 333.835 212.054C333.381 211.964 332.947 211.875 332.507 211.787C330.668 215.778 328.905 219.79 327.258 223.835C339.955 228.754 366.181 238.799 370.342 239.811C379.907 242.136 388.05 237.015 390.12 230.908C393.77 220.141 397.012 205.061 400.673 192.273L379.767 189.554Z" fill="#EAAD96"/>
<path d="M445.534 270.667L412.195 252.387L384.815 277.63C384.815 277.63 322.61 295.497 316.947 300.01C310.892 304.834 303.522 308.803 305.403 336.508C307.054 360.84 321.933 440.225 321.933 440.225C325.265 442.953 339.99 446.141 340.233 442.198C342.699 402.124 345.139 386.703 345.696 360.011C346.067 342.138 346.45 331.333 346.45 331.333C346.45 331.333 431.39 329.858 443.673 315.603C457.252 299.839 445.534 284.526 445.534 270.667Z" fill="#8F6D52"/>
<path d="M384.815 277.63C384.815 277.63 322.61 295.497 316.947 300.01C310.892 304.834 303.522 308.803 305.403 336.508C306.204 348.322 310.124 373.109 313.944 395.491" stroke="#785C45" stroke-width="1.0604" stroke-miterlimit="10"/>
<path d="M409.203 172.007C407.031 178.329 387.656 170.484 376.281 158.678C364.906 146.873 356.663 126.753 368.016 112.538C379.368 98.321 394.552 125.853 399.721 140.495C404.889 155.137 409.203 172.007 409.203 172.007Z" fill="#372B2C"/>
<path d="M389.009 208.137C391.09 208.495 393.161 208.778 395.231 209.054C395.282 208.678 395.351 208.269 395.395 207.91C396.914 195.35 409.375 160.016 396.624 166.224C388.161 170.343 381.503 175.855 376.176 197.95C375.542 200.584 375.17 203.09 374.934 205.495C379.059 207.161 386.296 207.67 389.009 208.137Z" fill="#64704D"/>
<path d="M401.802 165.833C403.249 163.055 406.27 162.57 402.14 156.637L420.872 150.223C420.872 150.223 424.932 157.114 430.845 162.142C436.755 167.17 423.209 206.822 411.4 210.047C399.591 213.272 393.112 200.797 393.112 200.797C393.112 200.797 393.619 191.286 393.483 188.675C393.103 181.417 401.802 165.833 401.802 165.833Z" fill="#EAAD96"/>
<path d="M434.195 162.605C434.195 162.605 425.6 165.662 418.154 172.844C410.706 180.024 400.317 188.917 397.49 187.981C394.663 187.045 400.304 167.938 403.162 163.912L396.624 166.224C396.624 166.224 390.712 183.536 386.959 189.151C383.206 194.768 377.476 202.543 378.05 209.889C378.623 217.233 384.639 227.529 384.065 233.847C383.493 240.166 382.131 268.018 382.131 268.018C382.131 268.018 393.452 271.233 412.694 271.005C433.578 270.755 440.85 269.707 453.897 262.136C450.286 253.778 447.546 253.822 446.8 232.334C446.4 220.822 448.806 210.213 451.671 197.578C454.536 184.941 458.153 177.841 452.711 171.523C447.266 165.201 434.195 162.605 434.195 162.605Z" fill="#64704D"/>
<path d="M418.688 142.62C412.349 133.807 412.507 128.767 412.562 128.098C412.567 128.058 412.569 128.015 412.569 128.015L409.435 109.94C409.435 109.94 402.26 101.738 389.971 105.518C377.681 109.298 372.701 112.626 370.99 117.158C369.547 120.974 370.464 125.733 371.121 127.866C371.778 129.999 373.732 131.722 373.017 134.028C372.303 136.336 368.51 141.004 368.439 142.245C368.365 143.486 372.88 144.635 373.567 145.287C374.255 145.939 378.266 151.72 380.216 154.674C382.166 157.628 389.27 154.638 395.202 153.969C400.424 153.378 408.271 162.17 410.316 167.33L436.772 163.966C436.772 163.966 425.511 152.103 418.688 142.62Z" fill="#EAAD96"/>
<path d="M410.319 167.33C410.201 152.118 412.821 137.373 402.608 131.352C399.847 129.724 390.463 128.604 386.972 128.017C368.013 124.826 368.013 112.54 368.013 112.54C368.013 112.54 379.419 100.326 395.505 97.1793C411.59 94.0306 427.261 104.052 435.755 124.988C442.195 140.857 463.322 152.074 470.347 162.609C484.562 183.921 464.64 210.583 447.706 207.466C428.238 203.883 448.196 184.745 442.311 171.016C441.313 168.692 428.153 174.431 421.262 176.383C414.029 178.43 410.345 170.768 410.319 167.33Z" fill="#372B2C"/>
<path d="M298.549 195.34C298.549 195.34 296.443 180.847 304.129 174.919L312.936 177.391L325.753 215.256L313.169 222.68L298.549 195.34Z" fill="#FAEBD9"/>
<path d="M306.843 199.819C306.843 199.819 298.812 194.631 304.579 188.376C309.109 183.46 352.242 180.372 352.242 180.372L377.999 239.599L366.974 244.159L343.897 243.053L306.843 199.819Z" fill="#FAEBD9"/>
<path d="M346.635 189.554L369.632 245.967C369.632 245.967 349.402 249.545 330.194 251.977L307.495 195.674L346.635 189.554Z" fill="#675FA9"/>
<path d="M320.967 251.217C320.967 251.217 323.389 253.224 330.194 251.977L307.495 195.674C307.495 195.674 302.752 196.909 298.547 195.338L320.967 251.217Z" fill="#675FA9"/>
<path opacity="0.13" d="M327.798 244.161L312.183 203.42L342.835 197.93L357.965 239.422L327.798 244.161Z" fill="#A5BDD1"/>
<path d="M336.7 211.168C337.19 211.168 338.169 211.577 339.387 212.273C339.3 212.09 339.213 211.879 339.131 211.621C338.425 209.447 343.933 212.37 347.512 215.205C351.091 218.039 357.647 221.199 357.647 221.199C360.347 221.222 354.856 215.917 356.073 214.427C357.291 212.935 361.238 216.074 363.844 219.678C366.322 223.107 370.032 227.548 374.93 230.411C376.657 231.421 381.343 232.446 387.057 233.582C387.82 233.721 420.763 239.161 425.084 240.579C425.084 240.579 430.35 219.472 434.934 202.497L455.843 205.215C452.179 218.003 446.992 241.667 443.341 252.434C441.271 258.543 433.128 263.665 423.563 261.337C418.29 260.055 377.521 244.244 373.863 242.781C366.825 239.963 359.791 238.664 357.602 237.369C354.048 235.265 346.682 230.38 344.088 228.619C341.682 226.984 342.853 225.112 343.038 224.847C342.92 224.82 342.272 224.014 340.489 221.99C339.096 220.408 339.423 217.633 339.423 217.633C337.573 215.872 337.455 214.997 336.7 213.918C335.122 211.669 335.935 211.168 336.7 211.168Z" fill="#EAAD96"/>
<path d="M301.258 198.289C301.258 198.289 298.001 181.76 305.759 175.251L304.129 174.917C304.129 174.917 295.867 180.357 298.549 195.338L301.258 198.289Z" fill="#675FA9"/>
<path d="M457.563 211.612C458.968 200.391 458.803 190.24 458.175 184.68C456.326 168.264 432.843 167.07 428.797 178.766C426.524 185.332 427.287 196.648 429.529 213.407C438.598 211.642 448.069 211.198 457.563 211.612Z" fill="#64704D"/>
<defs>
<linearGradient id="paint0_linear_1_249" x1="256.182" y1="567.634" x2="253.215" y2="524.667" gradientUnits="userSpaceOnUse">
<stop stop-color="#5B595D"/>
<stop offset="1" stop-color="#6B637D"/>
</linearGradient>
</defs>
</svg>
