<svg width="120" height="120" viewBox="0 0 120 120" fill="none" xmlns="http://www.w3.org/2000/svg">
<path d="M97.5 18.75H22.5C16.2868 18.75 11.25 23.7868 11.25 30V97.5C11.25 103.713 16.2868 108.75 22.5 108.75H97.5C103.713 108.75 108.75 103.713 108.75 97.5V30C108.75 23.7868 103.713 18.75 97.5 18.75Z" stroke="#01B6AD" stroke-width="9" stroke-linejoin="round"/>
<path d="M69.375 60C72.4816 60 75 57.4816 75 54.375C75 51.2684 72.4816 48.75 69.375 48.75C66.2684 48.75 63.75 51.2684 63.75 54.375C63.75 57.4816 66.2684 60 69.375 60Z" fill="#01B6AD"/>
<path d="M88.125 60C91.2316 60 93.75 57.4816 93.75 54.375C93.75 51.2684 91.2316 48.75 88.125 48.75C85.0184 48.75 82.5 51.2684 82.5 54.375C82.5 57.4816 85.0184 60 88.125 60Z" fill="#01B6AD"/>
<path d="M69.375 78.75C72.4816 78.75 75 76.2316 75 73.125C75 70.0184 72.4816 67.5 69.375 67.5C66.2684 67.5 63.75 70.0184 63.75 73.125C63.75 76.2316 66.2684 78.75 69.375 78.75Z" fill="#01B6AD"/>
<path d="M88.125 78.75C91.2316 78.75 93.75 76.2316 93.75 73.125C93.75 70.0184 91.2316 67.5 88.125 67.5C85.0184 67.5 82.5 70.0184 82.5 73.125C82.5 76.2316 85.0184 78.75 88.125 78.75Z" fill="#01B6AD"/>
<path d="M31.875 78.75C34.9816 78.75 37.5 76.2316 37.5 73.125C37.5 70.0184 34.9816 67.5 31.875 67.5C28.7684 67.5 26.25 70.0184 26.25 73.125C26.25 76.2316 28.7684 78.75 31.875 78.75Z" fill="#01B6AD"/>
<path d="M50.625 78.75C53.7316 78.75 56.25 76.2316 56.25 73.125C56.25 70.0184 53.7316 67.5 50.625 67.5C47.5184 67.5 45 70.0184 45 73.125C45 76.2316 47.5184 78.75 50.625 78.75Z" fill="#01B6AD"/>
<path d="M31.875 97.5C34.9816 97.5 37.5 94.9816 37.5 91.875C37.5 88.7684 34.9816 86.25 31.875 86.25C28.7684 86.25 26.25 88.7684 26.25 91.875C26.25 94.9816 28.7684 97.5 31.875 97.5Z" fill="#01B6AD"/>
<path d="M50.625 97.5C53.7316 97.5 56.25 94.9816 56.25 91.875C56.25 88.7684 53.7316 86.25 50.625 86.25C47.5184 86.25 45 88.7684 45 91.875C45 94.9816 47.5184 97.5 50.625 97.5Z" fill="#01B6AD"/>
<path d="M69.375 97.5C72.4816 97.5 75 94.9816 75 91.875C75 88.7684 72.4816 86.25 69.375 86.25C66.2684 86.25 63.75 88.7684 63.75 91.875C63.75 94.9816 66.2684 97.5 69.375 97.5Z" fill="#01B6AD"/>
<path d="M30 11.25V18.75M90 11.25V18.75" stroke="#01B6AD" stroke-width="9" stroke-linecap="round" stroke-linejoin="round"/>
<path d="M108.75 37.5H11.25" stroke="#01B6AD" stroke-width="9" stroke-linejoin="round"/>
</svg>
