<svg width="80" height="80" viewBox="0 0 80 80" fill="none" xmlns="http://www.w3.org/2000/svg">
<path d="M65 67.5L10 12.5" stroke="#01B6AD" stroke-width="7" stroke-miterlimit="10" stroke-linecap="round"/>
<path d="M35 21.3937V26.675C35.0003 26.8403 35.066 26.9987 35.1828 27.1156L38.9328 30.8656C39.0201 30.953 39.1314 31.0126 39.2526 31.0368C39.3737 31.061 39.4993 31.0488 39.6135 31.0016C39.7277 30.9545 39.8254 30.8745 39.8942 30.7719C39.963 30.6693 39.9998 30.5486 40 30.425V18.8391C40.007 18.1474 39.8266 17.4667 39.4781 16.8692C39.1296 16.2717 38.6258 15.7797 38.0203 15.4453C37.3963 15.1094 36.6896 14.9579 35.9827 15.0086C35.2758 15.0592 34.5979 15.3098 34.0281 15.7313C33.9924 15.7561 33.958 15.7827 33.925 15.8109L28.9344 19.8969C28.867 19.9522 28.8119 20.0211 28.7727 20.099C28.7335 20.1769 28.711 20.2622 28.7067 20.3493C28.7025 20.4365 28.7165 20.5235 28.7479 20.6049C28.7793 20.6863 28.8274 20.7602 28.8891 20.8219L31.5531 23.4875C31.6629 23.5973 31.8097 23.6623 31.9648 23.6698C32.1199 23.6773 32.2723 23.6268 32.3922 23.5281L35 21.3937ZM35 58.6062L22.8016 48.6188C21.906 47.8914 20.7865 47.4962 19.6328 47.5H10V32.5H17.925C18.0486 32.4998 18.1693 32.463 18.2719 32.3942C18.3745 32.3254 18.4545 32.2277 18.5016 32.1135C18.5488 31.9993 18.561 31.8737 18.5368 31.7526C18.5126 31.6314 18.453 31.5201 18.3656 31.4328L14.6156 27.6828C14.4987 27.566 14.3403 27.5003 14.175 27.5H8.75C7.75544 27.5 6.80161 27.8951 6.09835 28.5983C5.39509 29.3016 5 30.2554 5 31.25V48.75C5 49.7446 5.39509 50.6984 6.09835 51.4016C6.80161 52.1049 7.75544 52.5 8.75 52.5H19.65L33.925 64.1875C33.958 64.2158 33.9924 64.2424 34.0281 64.2672C34.605 64.6942 35.2926 64.9462 36.0088 64.993C36.7251 65.0399 37.4396 64.8795 38.0672 64.5312C38.6604 64.1934 39.1525 63.7031 39.4924 63.111C39.8322 62.5189 40.0075 61.8467 40 61.1641V53.325C39.9997 53.1597 39.934 53.0013 39.8172 52.8844L36.0672 49.1344C35.9799 49.047 35.8686 48.9874 35.7474 48.9632C35.6263 48.939 35.5007 48.9512 35.3865 48.9984C35.2723 49.0455 35.1746 49.1255 35.1058 49.2281C35.037 49.3307 35.0002 49.4515 35 49.575V58.6062ZM55 40C55 36.1625 54.0922 32.5187 52.2266 28.8641C51.9183 28.286 51.3953 27.852 50.7703 27.6555C50.1453 27.4591 49.4681 27.5158 48.8845 27.8136C48.3009 28.1113 47.8575 28.6262 47.6497 29.2476C47.4419 29.8689 47.4864 30.547 47.7734 31.1359C49.2719 34.0719 50 36.9719 50 40C50 40.4167 49.9839 40.8401 49.9516 41.2703C49.9382 41.4496 49.9637 41.6296 50.0262 41.7982C50.0888 41.9667 50.187 42.1197 50.3141 42.2469L53.3859 45.3203C53.4655 45.4002 53.5651 45.4572 53.6744 45.485C53.7836 45.5129 53.8984 45.5107 54.0065 45.4787C54.1146 45.4467 54.212 45.386 54.2885 45.3031C54.3649 45.2202 54.4175 45.1182 54.4406 45.0078C54.8103 43.3641 54.9979 41.6847 55 40ZM65 40C65 32.0016 62.9563 26.8922 59.6594 21.2406C59.3208 20.6772 58.7739 20.2697 58.1371 20.1066C57.5003 19.9434 56.8249 20.0376 56.257 20.3688C55.6892 20.6999 55.2746 21.2414 55.1031 21.876C54.9316 22.5106 55.0169 23.1872 55.3406 23.7594C58.2922 28.8187 60 33.0984 60 40C60 43.7234 59.4859 46.7 58.5359 49.4766C58.4596 49.6979 58.4469 49.9362 58.4994 50.1644C58.5519 50.3926 58.6674 50.6015 58.8328 50.7672L61.4531 53.3859C61.5255 53.4586 61.6147 53.5123 61.7127 53.5424C61.8108 53.5725 61.9147 53.5779 62.0154 53.5583C62.1161 53.5387 62.2104 53.4946 62.29 53.4299C62.3696 53.3653 62.4321 53.282 62.4719 53.1875C64.0766 49.3563 65 45.2984 65 40Z" fill="#01B6AD"/>
<path d="M75 40C75 28.3969 71.8453 21.0766 67.1078 13.6547C66.751 13.0953 66.1866 12.7005 65.5387 12.5572C64.8909 12.4139 64.2126 12.5338 63.6531 12.8906C63.0937 13.2474 62.6989 13.8119 62.5556 14.4597C62.4123 15.1076 62.5323 15.7859 62.8891 16.3453C67.1594 23.0281 70 29.6094 70 40C70 47.4141 68.6094 52.8313 66.3141 57.6563C66.2582 57.7727 66.2398 57.9035 66.2614 58.0308C66.2829 58.1581 66.3434 58.2756 66.4344 58.3672L69.2188 61.1547C69.2884 61.2248 69.3736 61.2773 69.4674 61.3081C69.5613 61.3389 69.6611 61.347 69.7586 61.3317C69.8562 61.3165 69.9488 61.2783 70.0288 61.2204C70.1087 61.1625 70.1739 61.0864 70.2188 60.9985C73.575 54.4094 75 47.9688 75 40Z" fill="#01B6AD"/>
</svg>
